<svg xmlns="http://www.w3.org/2000/svg" width="60" height="60" viewBox="0 0 60 60">
  <metadata><?xpacket begin="﻿" id="W5M0MpCehiHzreSzNTczkc9d"?>
<x:xmpmeta xmlns:x="adobe:ns:meta/" x:xmptk="Adobe XMP Core 5.6-c138 79.159824, 2016/09/14-01:09:01        ">
   <rdf:RDF xmlns:rdf="http://www.w3.org/1999/02/22-rdf-syntax-ns#">
      <rdf:Description rdf:about=""/>
   </rdf:RDF>
</x:xmpmeta>





















<?xpacket end="w"?></metadata>
<defs>
    <style>
      .cls-1 {
        fill: #2d85fe;
        fill-rule: evenodd;
      }
    </style>
  </defs>
  <path id="O2O" class="cls-1" d="M50,48a4,4,0,0,1-4,4H14a4,4,0,0,1-4-4l2-30h7.07a10.973,10.973,0,0,1,21.86,0H48ZM30,11a8,8,0,0,0-7.931,7H37.931A8,8,0,0,0,30,11ZM45.384,37.706a4.181,4.181,0,0,1-1.741,1.689A6.013,6.013,0,0,1,40.8,40a6.846,6.846,0,0,1-2.859-.521,4.216,4.216,0,0,1-1.835-1.649,5.244,5.244,0,0,1-.7-2.823A4.834,4.834,0,0,1,36.8,31.317,5.417,5.417,0,0,1,40.679,30a5.52,5.52,0,0,1,3.928,1.3,4.741,4.741,0,0,1,1.379,3.631A5.689,5.689,0,0,1,45.384,37.706ZM42.25,32.891a2.042,2.042,0,0,0-1.578-.63,1.965,1.965,0,0,0-1.532.64,3.127,3.127,0,0,0-.578,2.117,3.117,3.117,0,0,0,.575,2.1,2.26,2.26,0,0,0,3.138.013,3.434,3.434,0,0,0,.557-2.249A2.877,2.877,0,0,0,42.25,32.891Zm-15.741,4.7A11.708,11.708,0,0,1,29.291,35.1a8.148,8.148,0,0,0,1.595-1.333,1.446,1.446,0,0,0,.348-0.864,0.985,0.985,0,0,0-.345-0.755,1.369,1.369,0,0,0-1.755.01,1.924,1.924,0,0,0-.463,1.141l-2.842-.218a4.133,4.133,0,0,1,.613-1.771,2.817,2.817,0,0,1,1.257-.976A5.977,5.977,0,0,1,29.946,30a6.66,6.66,0,0,1,2.33.323,2.813,2.813,0,0,1,1.309.993,2.525,2.525,0,0,1,.477,1.5,2.959,2.959,0,0,1-.547,1.689,7.337,7.337,0,0,1-1.989,1.768q-0.857.561-1.146,0.785t-0.679.587h4.43v2.19H25.62A4.888,4.888,0,0,1,26.508,37.587Zm-4.263,1.807a6.013,6.013,0,0,1-2.838.6,6.846,6.846,0,0,1-2.859-.521,4.216,4.216,0,0,1-1.835-1.649,5.244,5.244,0,0,1-.7-2.823A4.834,4.834,0,0,1,15.4,31.317,5.417,5.417,0,0,1,19.282,30a5.519,5.519,0,0,1,3.928,1.3,4.741,4.741,0,0,1,1.379,3.631,5.69,5.69,0,0,1-.6,2.78A4.181,4.181,0,0,1,22.246,39.395Zm-1.393-6.5a2.042,2.042,0,0,0-1.578-.63,1.966,1.966,0,0,0-1.532.64,3.127,3.127,0,0,0-.578,2.117,3.117,3.117,0,0,0,.575,2.1,2,2,0,0,0,1.564.64,2,2,0,0,0,1.574-.627,3.434,3.434,0,0,0,.557-2.249A2.877,2.877,0,0,0,20.853,32.891Z"/>
</svg>
