<svg xmlns="http://www.w3.org/2000/svg" width="42" height="40" viewBox="0 0 42 40">
  <metadata><?xpacket begin="﻿" id="W5M0MpCehiHzreSzNTczkc9d"?>
<x:xmpmeta xmlns:x="adobe:ns:meta/" x:xmptk="Adobe XMP Core 5.6-c138 79.159824, 2016/09/14-01:09:01        ">
   <rdf:RDF xmlns:rdf="http://www.w3.org/1999/02/22-rdf-syntax-ns#">
      <rdf:Description rdf:about=""/>
   </rdf:RDF>
</x:xmpmeta>
                                                                                                    
                                                                                                    
                                                                                                    
                                                                                                    
                                                                                                    
                                                                                                    
                                                                                                    
                                                                                                    
                                                                                                    
                                                                                                    
                                                                                                    
                                                                                                    
                                                                                                    
                                                                                                    
                                                                                                    
                                                                                                    
                                                                                                    
                                                                                                    
                                                                                                    
                                                                                                    
                           
<?xpacket end="w"?></metadata>
<defs>
    <style>
      .cls-1 {
        fill: #2d85fe;
        fill-rule: evenodd;
      }
    </style>
  </defs>
  <path id="star" class="cls-1" d="M583.514,3216.74c-2.979,3.46-8.247,9.16-8.247,9.16s0.861,6.27,1.345,10.54c0.21,2.18-1.44,3.13-3.309,2.28-3.555-1.71-8.968-4.34-10.183-4.93-1.238.58-6.7,3.17-10.3,4.87-1.891.85-3.56-.09-3.347-2.27,0.489-4.27,1.36-10.53,1.36-10.53s-5.33-5.69-8.344-9.14c-1.066-1.25-.38-3.04,1.72-3.36,4.283-.78,10.922-2,10.922-2s3.63-6.38,5.929-10.28c1.264-2.37,2.138-2.1,2.289-2.03,0.39,0.13,1,.59,1.807,2.03,2.272,3.91,5.861,10.29,5.861,10.29s6.561,1.23,10.794,2.01C583.889,3213.7,584.567,3215.49,583.514,3216.74Z" transform="translate(-542 -3199)"/>
</svg>
