<svg xmlns="http://www.w3.org/2000/svg" width="60" height="60" viewBox="0 0 60 60">
  <metadata><?xpacket begin="﻿" id="W5M0MpCehiHzreSzNTczkc9d"?>
<x:xmpmeta xmlns:x="adobe:ns:meta/" x:xmptk="Adobe XMP Core 5.6-c138 79.159824, 2016/09/14-01:09:01        ">
   <rdf:RDF xmlns:rdf="http://www.w3.org/1999/02/22-rdf-syntax-ns#">
      <rdf:Description rdf:about=""/>
   </rdf:RDF>
</x:xmpmeta>
                                                                                                    
                                                                                                    
                                                                                                    
                                                                                                    
                                                                                                    
                                                                                                    
                                                                                                    
                                                                                                    
                                                                                                    
                                                                                                    
                                                                                                    
                                                                                                    
                                                                                                    
                                                                                                    
                                                                                                    
                                                                                                    
                                                                                                    
                                                                                                    
                                                                                                    
                                                                                                    
                           
<?xpacket end="w"?></metadata>
<defs>
    <style>
      .cls-1 {
        fill: #2d85fe;
        fill-rule: evenodd;
      }
    </style>
  </defs>
  <path id="供应链金融" class="cls-1" d="M34,52.63V49.6a20,20,0,0,0,0-39.2V7.37A22.976,22.976,0,0,1,34,52.63ZM47,30A17,17,0,1,1,30,13,17,17,0,0,1,47,30ZM34.113,21.993l-4.121,6.2-4.121-6.2H22l5.24,7.544H23.77v1.886h4.476l0.027,0.029v2.372h-4.5v1.886h4.5v4.286h3.439V35.709h4.53V33.823h-4.53V31.451l0.027-.029h4.5V29.537H32.749l5.24-7.544H34.113ZM10,30A20.006,20.006,0,0,0,26,49.6V52.63A22.976,22.976,0,0,1,26,7.37V10.4A20.006,20.006,0,0,0,10,30Z"/>
</svg>
