<?xml version="1.0" standalone="no"?><!DOCTYPE svg PUBLIC "-//W3C//DTD SVG 1.1//EN" "http://www.w3.org/Graphics/SVG/1.1/DTD/svg11.dtd"><svg t="1523850159610" class="icon" style="" viewBox="0 0 1024 1024" version="1.1" xmlns="http://www.w3.org/2000/svg" p-id="994" xmlns:xlink="http://www.w3.org/1999/xlink" width="200" height="200"><defs><style type="text/css"></style></defs><path d="M899.724579 64.021106 123.688044 64.021106c-32.975019 0-59.705823 26.731828-59.705823 59.705823l0 776.036535c0 32.975019 26.731828 59.705823 59.705823 59.705823l776.036535 0c32.975019 0 59.705823-26.731828 59.705823-59.705823L959.430402 123.726929C959.430402 90.75191 932.698574 64.021106 899.724579 64.021106zM825.693492 322.209446 450.090998 697.81194c-3.624551 3.624551-8.397251 5.506411-13.46057 5.762237-6.611581 1.217734-13.090133-0.283456-17.551748-4.745071L194.672748 474.42215c-8.120958-8.120958-6.492878-22.914896 3.63683-33.044604l8.840342-8.840342c10.128685-10.128685 24.923646-11.757788 33.044604-3.63683l193.882755 193.882755L780.172739 276.688693c8.68173-8.68173 23.932062-7.509021 34.060747 2.619664l8.840342 8.840342C833.202513 298.277384 834.375222 313.526693 825.693492 322.209446z" p-id="995" fill="#1296db"></path></svg>