<svg xmlns="http://www.w3.org/2000/svg" width="44" height="48" viewBox="0 0 44 48">
  <metadata><?xpacket begin="﻿" id="W5M0MpCehiHzreSzNTczkc9d"?>
<x:xmpmeta xmlns:x="adobe:ns:meta/" x:xmptk="Adobe XMP Core 5.6-c138 79.159824, 2016/09/14-01:09:01        ">
   <rdf:RDF xmlns:rdf="http://www.w3.org/1999/02/22-rdf-syntax-ns#">
      <rdf:Description rdf:about=""/>
   </rdf:RDF>
</x:xmpmeta>
                                                                                                    
                                                                                                    
                                                                                                    
                                                                                                    
                                                                                                    
                                                                                                    
                                                                                                    
                                                                                                    
                                                                                                    
                                                                                                    
                                                                                                    
                                                                                                    
                                                                                                    
                                                                                                    
                                                                                                    
                                                                                                    
                                                                                                    
                                                                                                    
                                                                                                    
                                                                                                    
                           
<?xpacket end="w"?></metadata>
<defs>
    <style>
      .cls-1 {
        fill: #2d85fe;
        fill-rule: evenodd;
      }
    </style>
  </defs>
  <path id="帮助" class="cls-1" d="M631.8,731.93c-2.14.7-6.8,5.07-6.8,5.07s-4.578-4.363-6.687-5.035A22,22,0,1,1,631.8,731.93Zm-8.687-9.584a2.425,2.425,0,0,0,1.678.665,2.345,2.345,0,0,0,1.678-.635,2.135,2.135,0,0,0,.7-1.663,2.211,2.211,0,0,0-.671-1.632,2.389,2.389,0,0,0-1.709-.635,2.417,2.417,0,0,0-1.678.635A2.321,2.321,0,0,0,623.109,722.346Zm7.049-19.742a6.988,6.988,0,0,0-4.821-1.6,7.383,7.383,0,0,0-5.34,1.905,6.885,6.885,0,0,0-1.984,5.26h3.479a4.912,4.912,0,0,1,.763-2.963,3.231,3.231,0,0,1,2.868-1.239,3.207,3.207,0,0,1,2.472,5.351l-0.367.423a16.206,16.206,0,0,0-3.57,3.839,6.412,6.412,0,0,0-.61,2.963v0.424h3.509v-0.424a4.3,4.3,0,0,1,.458-1.965,4.363,4.363,0,0,1,1.22-1.511q2.136-1.845,2.625-2.389a5.96,5.96,0,0,0,1.129-3.718A5.436,5.436,0,0,0,630.158,702.6Z" transform="translate(-603 -689)"/>
</svg>
