<svg xmlns="http://www.w3.org/2000/svg" width="60" height="60" viewBox="0 0 60 60">
  <metadata><?xpacket begin="﻿" id="W5M0MpCehiHzreSzNTczkc9d"?>
<x:xmpmeta xmlns:x="adobe:ns:meta/" x:xmptk="Adobe XMP Core 5.6-c138 79.159824, 2016/09/14-01:09:01        ">
   <rdf:RDF xmlns:rdf="http://www.w3.org/1999/02/22-rdf-syntax-ns#">
      <rdf:Description rdf:about=""/>
   </rdf:RDF>
</x:xmpmeta>
                                                                                                    
                                                                                                    
                                                                                                    
                                                                                                    
                                                                                                    
                                                                                                    
                                                                                                    
                                                                                                    
                                                                                                    
                                                                                                    
                                                                                                    
                                                                                                    
                                                                                                    
                                                                                                    
                                                                                                    
                                                                                                    
                                                                                                    
                                                                                                    
                                                                                                    
                                                                                                    
                           
<?xpacket end="w"?></metadata>
<defs>
    <style>
      .cls-1 {
        fill: #2d85fe;
        fill-rule: evenodd;
      }
    </style>
  </defs>
  <path id="报价" class="cls-1" d="M30,52a21.871,21.871,0,0,1-13.055-4.321L11,49l1.321-5.945A21.981,21.981,0,1,1,30,52ZM45,34.01L40.99,30H44A14,14,0,1,0,30,44v2A16,16,0,1,1,46,30h3.01ZM28.489,39V35.424h-3.94V33.852h3.94V31.876l-0.024-.024H24.549V30.281h3.033L23,23.994h3.391l3.606,5.167L33.6,23.994H36.99l-4.585,6.286h3.057v1.572h-3.94l-0.024.024v1.976h3.964v1.572H31.5V39H28.489Z"/>
</svg>
