<svg xmlns="http://www.w3.org/2000/svg" width="42" height="40" viewBox="0 0 42 40">
  <metadata><?xpacket begin="﻿" id="W5M0MpCehiHzreSzNTczkc9d"?>
<x:xmpmeta xmlns:x="adobe:ns:meta/" x:xmptk="Adobe XMP Core 5.6-c138 79.159824, 2016/09/14-01:09:01        ">
   <rdf:RDF xmlns:rdf="http://www.w3.org/1999/02/22-rdf-syntax-ns#">
      <rdf:Description rdf:about=""/>
   </rdf:RDF>
</x:xmpmeta>
                                                                                                    
                                                                                                    
                                                                                                    
                                                                                                    
                                                                                                    
                                                                                                    
                                                                                                    
                                                                                                    
                                                                                                    
                                                                                                    
                                                                                                    
                                                                                                    
                                                                                                    
                                                                                                    
                                                                                                    
                                                                                                    
                                                                                                    
                                                                                                    
                                                                                                    
                                                                                                    
                           
<?xpacket end="w"?></metadata>
<defs>
    <style>
      .cls-1 {
        fill: #2d85fe;
        fill-rule: evenodd;
      }
    </style>
  </defs>
  <path id="收藏" class="cls-1" d="M646.514,459.743c-2.979,3.455-8.247,9.159-8.247,9.159s0.861,6.265,1.345,10.542c0.21,2.179-1.44,3.122-3.309,2.273-3.555-1.7-8.968-4.337-10.183-4.929-1.238.587-6.7,3.177-10.3,4.874-1.891.848-3.56-.094-3.347-2.27,0.489-4.271,1.36-10.528,1.36-10.528s-5.33-5.695-8.344-9.145c-1.066-1.253-.38-3.035,1.72-3.363,4.283-.771,10.922-2,10.922-2s3.63-6.372,5.929-10.276c1.264-2.375,2.138-2.1,2.289-2.031,0.39,0.127,1,.591,1.807,2.034,2.272,3.909,5.861,10.29,5.861,10.29s6.561,1.229,10.794,2C646.889,456.705,647.567,458.489,646.514,459.743Z" transform="translate(-605 -442)"/>
</svg>
