<svg xmlns="http://www.w3.org/2000/svg" width="52" height="48" viewBox="0 0 52 48">
  <metadata><?xpacket begin="﻿" id="W5M0MpCehiHzreSzNTczkc9d"?>
<x:xmpmeta xmlns:x="adobe:ns:meta/" x:xmptk="Adobe XMP Core 5.6-c138 79.159824, 2016/09/14-01:09:01        ">
   <rdf:RDF xmlns:rdf="http://www.w3.org/1999/02/22-rdf-syntax-ns#">
      <rdf:Description rdf:about=""/>
   </rdf:RDF>
</x:xmpmeta>
                                                                                                    
                                                                                                    
                                                                                                    
                                                                                                    
                                                                                                    
                                                                                                    
                                                                                                    
                                                                                                    
                                                                                                    
                                                                                                    
                                                                                                    
                                                                                                    
                                                                                                    
                                                                                                    
                                                                                                    
                                                                                                    
                                                                                                    
                                                                                                    
                                                                                                    
                                                                                                    
                           
<?xpacket end="w"?></metadata>
<defs>
    <style>
      .cls-1 {
        fill: #fff;
        fill-rule: evenodd;
      }
    </style>
  </defs>
  <path id="汽车" class="cls-1" d="M391,195a5.988,5.988,0,0,0-5.9,5H383V180h6a12,12,0,0,1,12,12v8h-4.1A5.988,5.988,0,0,0,391,195Zm-29,0a5.988,5.988,0,0,0-5.9,5H350V189h26l-2-2H350v-3h18l-2-2H350v-7a6,6,0,0,1,6-6h19a6,6,0,0,1,6,6v25H367.9A5.988,5.988,0,0,0,362,195Zm-4,6a4,4,0,1,1,4,4A4,4,0,0,1,358,201Zm29,0a4,4,0,1,1,4,4A4,4,0,0,1,387,201Zm10,6.009L401.991,212,397,216.991V213H350v-2h47v-3.991Z" transform="translate(-350 -169)"/>
</svg>
