<svg xmlns="http://www.w3.org/2000/svg" width="44" height="38" viewBox="0 0 44 38">
  <metadata><?xpacket begin="﻿" id="W5M0MpCehiHzreSzNTczkc9d"?>
<x:xmpmeta xmlns:x="adobe:ns:meta/" x:xmptk="Adobe XMP Core 5.6-c138 79.159824, 2016/09/14-01:09:01        ">
   <rdf:RDF xmlns:rdf="http://www.w3.org/1999/02/22-rdf-syntax-ns#">
      <rdf:Description rdf:about=""/>
   </rdf:RDF>
</x:xmpmeta>
                                                                                                    
                                                                                                    
                                                                                                    
                                                                                                    
                                                                                                    
                                                                                                    
                                                                                                    
                                                                                                    
                                                                                                    
                                                                                                    
                                                                                                    
                                                                                                    
                                                                                                    
                                                                                                    
                                                                                                    
                                                                                                    
                                                                                                    
                                                                                                    
                                                                                                    
                                                                                                    
                           
<?xpacket end="w"?></metadata>
<defs>
    <style>
      .cls-1 {
        fill: #2d85fe;
        fill-rule: evenodd;
      }
    </style>
  </defs>
  <path id="消息" class="cls-1" d="M143,726H118l-8,6v-6h-3a4,4,0,0,1-4-4V698a4,4,0,0,1,4-4h36a4,4,0,0,1,4,4v24A4,4,0,0,1,143,726Zm-29-19a3,3,0,1,0,3,3A3,3,0,0,0,114,707Zm11,0a3,3,0,1,0,3,3A3,3,0,0,0,125,707Zm11,0a3,3,0,1,0,3,3A3,3,0,0,0,136,707Z" transform="translate(-103 -694)"/>
</svg>
