<svg xmlns="http://www.w3.org/2000/svg" width="51" height="36" viewBox="0 0 51 36">
  <metadata><?xpacket begin="﻿" id="W5M0MpCehiHzreSzNTczkc9d"?>
<x:xmpmeta xmlns:x="adobe:ns:meta/" x:xmptk="Adobe XMP Core 5.6-c138 79.159824, 2016/09/14-01:09:01        ">
   <rdf:RDF xmlns:rdf="http://www.w3.org/1999/02/22-rdf-syntax-ns#">
      <rdf:Description rdf:about=""/>
   </rdf:RDF>
</x:xmpmeta>
                                                                                                    
                                                                                                    
                                                                                                    
                                                                                                    
                                                                                                    
                                                                                                    
                                                                                                    
                                                                                                    
                                                                                                    
                                                                                                    
                                                                                                    
                                                                                                    
                                                                                                    
                                                                                                    
                                                                                                    
                                                                                                    
                                                                                                    
                                                                                                    
                                                                                                    
                                                                                                    
                           
<?xpacket end="w"?></metadata>
<defs>
    <style>
      .cls-1 {
        fill: #2d85fe;
        fill-rule: evenodd;
      }
    </style>
  </defs>
  <path id="物流" class="cls-1" d="M401,726h-6.1a5.98,5.98,0,0,0-11.8,0H370V701a6,6,0,0,1,6-6h19a6,6,0,0,1,6,6v7H385l-2,2h18v3H377l-2,2h26v11Zm-41-5a5.988,5.988,0,0,0-5.9,5H350v-8a12,12,0,0,1,12-12h6v20h-2.1A5.988,5.988,0,0,0,360,721Zm0,2a4,4,0,1,1-4,4A4,4,0,0,1,360,723Zm29,0a4,4,0,1,1-4,4A4,4,0,0,1,389,723Z" transform="translate(-350 -695)"/>
</svg>
