<svg xmlns="http://www.w3.org/2000/svg" width="60" height="60" viewBox="0 0 60 60">
  <metadata><?xpacket begin="﻿" id="W5M0MpCehiHzreSzNTczkc9d"?>
<x:xmpmeta xmlns:x="adobe:ns:meta/" x:xmptk="Adobe XMP Core 5.6-c138 79.159824, 2016/09/14-01:09:01        ">
   <rdf:RDF xmlns:rdf="http://www.w3.org/1999/02/22-rdf-syntax-ns#">
      <rdf:Description rdf:about=""/>
   </rdf:RDF>
</x:xmpmeta>
                                                                                                    
                                                                                                    
                                                                                                    
                                                                                                    
                                                                                                    
                                                                                                    
                                                                                                    
                                                                                                    
                                                                                                    
                                                                                                    
                                                                                                    
                                                                                                    
                                                                                                    
                                                                                                    
                                                                                                    
                                                                                                    
                                                                                                    
                                                                                                    
                                                                                                    
                                                                                                    
                           
<?xpacket end="w"?></metadata>
<defs>
    <style>
      .cls-1 {
        fill: #2d85fe;
        fill-rule: evenodd;
      }
    </style>
  </defs>
  <path id="矩形_45_拷贝" data-name="矩形 45 拷贝" class="cls-1" d="M49.9,43a5.98,5.98,0,0,0-11.8,0H25V18a6,6,0,0,1,6-6H50a6,6,0,0,1,6,6V43H49.9ZM15,38a5.988,5.988,0,0,0-5.9,5H5V35A12,12,0,0,1,17,23h6V43H20.9A5.989,5.989,0,0,0,15,38Zm0,2a4,4,0,1,1-4,4A4,4,0,0,1,15,40Zm29,0a4,4,0,1,1-4,4A4,4,0,0,1,44,40ZM30,32l2-2H56v2H30Zm10-7H56v2H38Z"/>
</svg>
