<svg xmlns="http://www.w3.org/2000/svg" width="34.031" height="34" viewBox="0 0 34.031 34">
  <metadata><?xpacket begin="﻿" id="W5M0MpCehiHzreSzNTczkc9d"?>
<x:xmpmeta xmlns:x="adobe:ns:meta/" x:xmptk="Adobe XMP Core 5.6-c138 79.159824, 2016/09/14-01:09:01        ">
   <rdf:RDF xmlns:rdf="http://www.w3.org/1999/02/22-rdf-syntax-ns#">
      <rdf:Description rdf:about=""/>
   </rdf:RDF>
</x:xmpmeta>
                                                                                                    
                                                                                                    
                                                                                                    
                                                                                                    
                                                                                                    
                                                                                                    
                                                                                                    
                                                                                                    
                                                                                                    
                                                                                                    
                                                                                                    
                                                                                                    
                                                                                                    
                                                                                                    
                                                                                                    
                                                                                                    
                                                                                                    
                                                                                                    
                                                                                                    
                                                                                                    
                           
<?xpacket end="w"?></metadata>
<defs>
    <style>
      .cls-1 {
        fill: #3087fe;
        fill-rule: evenodd;
      }
    </style>
  </defs>
  <path id="编辑" class="cls-1" d="M719.567,159.081l-13.192,13.154-3.629-3.62,13.187-13.164c0.751-.75,2.172-0.545,3.176.457S720.317,158.331,719.567,159.081ZM699.83,171.522h0l1.458-1.454,3.629,3.62-1.458,1.453h0L698,176.989l1.834-5.467h0ZM704,159H691a1,1,0,0,0-1,1v24a1,1,0,0,0,1,1h24a1,1,0,0,0,1-1V171a2,2,0,0,1,4,0v16a2,2,0,0,1-2,2H688a2,2,0,0,1-2-2V157a2,2,0,0,1,2-2h16A2,2,0,0,1,704,159Z" transform="translate(-686 -155)"/>
</svg>
