<svg xmlns="http://www.w3.org/2000/svg" width="24" height="22.03" viewBox="0 0 24 22.03">
  <metadata><?xpacket begin="﻿" id="W5M0MpCehiHzreSzNTczkc9d"?>
<x:xmpmeta xmlns:x="adobe:ns:meta/" x:xmptk="Adobe XMP Core 5.6-c138 79.159824, 2016/09/14-01:09:01        ">
   <rdf:RDF xmlns:rdf="http://www.w3.org/1999/02/22-rdf-syntax-ns#">
      <rdf:Description rdf:about=""/>
   </rdf:RDF>
</x:xmpmeta>
                                                                                                    
                                                                                                    
                                                                                                    
                                                                                                    
                                                                                                    
                                                                                                    
                                                                                                    
                                                                                                    
                                                                                                    
                                                                                                    
                                                                                                    
                                                                                                    
                                                                                                    
                                                                                                    
                                                                                                    
                                                                                                    
                                                                                                    
                                                                                                    
                                                                                                    
                                                                                                    
                           
<?xpacket end="w"?></metadata>
<defs>
    <style>
      .cls-1 {
        fill: #d5d5d5;
        fill-rule: evenodd;
      }
    </style>
  </defs>
  <path id="评论数" class="cls-1" d="M154,2083h-5.98l-4.02,4.02-4.02-4.02H134a2,2,0,0,1-2-2v-14a2,2,0,0,1,2-2h20a2,2,0,0,1,2,2v14A2,2,0,0,1,154,2083Zm-17-11a2,2,0,1,0,2,2A2,2,0,0,0,137,2072Zm7,0a2,2,0,1,0,2,2A2,2,0,0,0,144,2072Zm7,0a2,2,0,1,0,2,2A2,2,0,0,0,151,2072Z" transform="translate(-132 -2065)"/>
</svg>
